# xmcd
#
# Track frame offsets: 
#        150
#        14043
#        26237
#        38215
#        53332
#        65296
#        78677
#        92445
#        104605
#        117026
#        129511
#        142768
#
# Disc length: 2064 seconds
#
# Revision: 0
# Processed by: cddbd v1.5.2PL0 Copyright (c) Steve Scherf et al.
# Submitted via: ExactAudioCopy v0.99pb5
#
DISCID=98080e0c
DTITLE=Moe Bandy - Too Old To Die Young
DYEAR=2005
DGENRE=Country
TTITLE0=I Cheated Me Right Out Of You
TTITLE1=It's A Cheating Situation
TTITLE2=She's Not Really Cheatin' (She's Just Gettin' Even)
TTITLE3=Hank Williams. You Wrote My Life
TTITLE4=Let's Get Over Them Together
TTITLE5=I Just Started Hatin' Cheatin' Songs Today
TTITLE6=Till I'm Too Old To Die Young
TTITLE7=Just Good OL' Boys
TTITLE8=Barstool Mountain
TTITLE9=Two Lonely People
TTITLE10=Following The Feeling
TTITLE11=It Was Always So Easy (To Find An Unhappy Woman)
EXTD=
EXTT0=
EXTT1=
EXTT2=
EXTT3=
EXTT4=
EXTT5=
EXTT6=
EXTT7=
EXTT8=
EXTT9=
EXTT10=
EXTT11=
PLAYORDER=
